<svg xmlns="http://www.w3.org/2000/svg" viewBox="0 0 25 25">
  <defs>
    <style>
      .cls-1, .cls-2 {
        fill: none;
      }

      .cls-3, .cls-4 {
        stroke: none;
      }

      .cls-4 {
        fill: #515c8b;
      }
    </style>
  </defs>
  <g id="arioo" transform="translate(-59 -655)">
    <g id="Subtraction_20" data-name="Subtraction 20" class="cls-1" transform="translate(11614.388 661.95)">
      <path class="cls-3" d="M-11535.735,11.671h-9.43A5.842,5.842,0,0,1-11551,5.836,5.842,5.842,0,0,1-11545.165,0h4.091a5.842,5.842,0,0,1,5.835,5.836v5.34A.5.5,0,0,1-11535.735,11.671Zm-9.777-7.781a2,2,0,0,0-2,1.994,2,2,0,0,0,2,1.994h6.383a.5.5,0,0,0,.5-.5v-1.5a2,2,0,0,0-1.994-1.994Z"/>
      <path class="cls-4" d="M -11536.2392578125 10.67104434967041 L -11536.2392578125 5.835524082183838 C -11536.2392578125 3.169214010238647 -11538.408203125 1.000004053115845 -11541.07421875 1.000004053115845 L -11545.1650390625 1.000004053115845 C -11547.83203125 1.000004053115845 -11550.0009765625 3.169214010238647 -11550.0009765625 5.835524082183838 C -11550.0009765625 8.501833915710449 -11547.83203125 10.67104434967041 -11545.1650390625 10.67104434967041 L -11536.2392578125 10.67104434967041 M -11545.5126953125 2.890354156494141 L -11540.625 2.890354156494141 C -11538.9736328125 2.890354156494141 -11537.630859375 4.233654022216797 -11537.630859375 5.884804248809814 L -11537.630859375 7.380643844604492 C -11537.630859375 8.206984519958496 -11538.3037109375 8.879263877868652 -11539.1298828125 8.879263877868652 L -11545.5126953125 8.879263877868652 C -11547.1640625 8.879263877868652 -11548.5078125 7.535953998565674 -11548.5078125 5.884804248809814 C -11548.5078125 4.233654022216797 -11547.1640625 2.890354156494141 -11545.5126953125 2.890354156494141 M -11535.7353515625 11.67104434967041 L -11545.1650390625 11.67104434967041 C -11548.3828125 11.67104434967041 -11551.0009765625 9.053243637084961 -11551.0009765625 5.835524082183838 C -11551.0009765625 2.617804050445557 -11548.3828125 4.082183750142576e-06 -11545.1650390625 4.082183750142576e-06 L -11541.07421875 4.082183750142576e-06 C -11537.8564453125 4.082183750142576e-06 -11535.2392578125 2.617804050445557 -11535.2392578125 5.835524082183838 L -11535.2392578125 11.17533397674561 C -11535.2392578125 11.44867420196533 -11535.4619140625 11.67104434967041 -11535.7353515625 11.67104434967041 Z M -11545.5126953125 3.890354156494141 C -11546.61328125 3.890354156494141 -11547.5078125 4.785064220428467 -11547.5078125 5.884804248809814 C -11547.5078125 6.984554290771484 -11546.61328125 7.879263877868652 -11545.5126953125 7.879263877868652 L -11539.1298828125 7.879263877868652 C -11538.8544921875 7.879263877868652 -11538.630859375 7.65558385848999 -11538.630859375 7.380643844604492 L -11538.630859375 5.884804248809814 C -11538.630859375 4.785064220428467 -11539.525390625 3.890354156494141 -11540.625 3.890354156494141 L -11545.5126953125 3.890354156494141 Z"/>
    </g>
    <rect id="Rectangle_2343" data-name="Rectangle 2343" class="cls-2" width="25" height="25" transform="translate(59 655)"/>
  </g>
</svg>
