<svg xmlns="http://www.w3.org/2000/svg" viewBox="0 0 16.888 17.269">
  <defs>
    <style>
      .cls-1 {
        fill: none;
      }

      .cls-2 {
        fill: #2094fa;
      }
    </style>
  </defs>
  <g id="close" transform="translate(-1060.698 -73.913)">
    <rect id="bg" class="cls-1" width="13.424" height="13.424" transform="translate(1060.698 73.913)"/>
    <path id="union" class="cls-2" d="M6.314,12.144a.59.59,0,0,1-.572-.571L5.635,6.729.792,6.622a.59.59,0,0,1-.571-.572A.53.53,0,0,1,.767,5.5l4.844.107L5.5.767A.53.53,0,0,1,6.05.221a.59.59,0,0,1,.572.572l.107,4.844,4.844.107a.59.59,0,0,1,.571.571.53.53,0,0,1-.546.547L6.753,6.754,6.86,11.6a.529.529,0,0,1-.5.546Z" transform="translate(1069.155 74.008) rotate(45)"/>
  </g>
</svg>
