<svg xmlns="http://www.w3.org/2000/svg" viewBox="0 0 25 25">
  <defs>
    <style>
      .cls-1, .cls-2 {
        fill: none;
      }

      .cls-1 {
        stroke: #515c8b;
        stroke-linecap: round;
        stroke-linejoin: round;
        stroke-miterlimit: 10;
      }
    </style>
  </defs>
  <g id="Contact" transform="translate(-51 -485)">
    <g id="address-book-icon--svg-png-----orion-icon-library" transform="translate(58.128 489.376)">
      <path id="layer1" class="cls-1" d="M18,10h8.3" transform="translate(-15.924 -7.924)"/>
      <path id="layer2" class="cls-1" d="M21.419,2H12.076a2.076,2.076,0,1,0,0,4.152h9.343V17.571H12.076A2.076,2.076,0,0,1,10,15.5V4.076" transform="translate(-10 -2)"/>
      <path id="layer1-2" data-name="layer1" class="cls-1" d="M22.856,30.931c.856-.182.856-.493.856-.7v-.311a2.05,2.05,0,0,1-.675-1.505v-.96a1.561,1.561,0,0,1,3.114,0v.96a2.05,2.05,0,0,1-.7,1.479V30.2c0,.208,0,.519.908.7s.83,1.324.83,1.324H22S22,31.113,22.856,30.931Z" transform="translate(-18.886 -19.771)"/>
    </g>
    <rect id="Rectangle_2334" data-name="Rectangle 2334" class="cls-2" width="25" height="25" transform="translate(51 485)"/>
  </g>
</svg>
