<svg xmlns="http://www.w3.org/2000/svg" viewBox="0 0 21 21">
  <defs>
    <style>
      .cls-1 {
        fill: #bbb;
      }

      .cls-2 {
        fill: none;
      }
    </style>
  </defs>
  <g id="expand" transform="translate(-1111 -17)">
    <path id="Path_95" data-name="Path 95" class="cls-1" d="M14.364,3.11a.845.845,0,0,0-.284-.553L11.664.207a.777.777,0,0,0-1,.069.656.656,0,0,0,0,.968l1.208,1.175H2.424L3.7,1.175a.656.656,0,0,0,0-.968.7.7,0,0,0-1,0L.22,2.626h0c-.071.069-.142.138-.142.207a.744.744,0,0,0,0,.553c0,.069.071.138.142.207h0L2.708,6.013a.7.7,0,0,0,1,0,.656.656,0,0,0,0-.968L2.424,3.8h9.524L10.669,5.046a.656.656,0,0,0,0,.968.7.7,0,0,0,1,0l2.488-2.419a.532.532,0,0,0,.213-.484Z" transform="translate(1113.975 24)"/>
    <rect id="Rectangle_2362" data-name="Rectangle 2362" class="cls-2" width="21" height="21" transform="translate(1111 17)"/>
  </g>
</svg>
