<svg xmlns="http://www.w3.org/2000/svg" viewBox="0 0 25.8 25.8">
  <defs>
    <style>
      .cls-1 {
        fill: none;
      }

      .cls-2 {
        fill: #2094fa;
      }
    </style>
  </defs>
  <g id="facebook" transform="translate(-37.8 -37.8)">
    <g id="Group_1869" data-name="Group 1869" transform="translate(37.8 37.8)">
      <path id="Path_1032" data-name="Path 1032" class="cls-1" d="M0,25.8V0H25.8V25.8Z" transform="translate(0)"/>
      <g id="Group_1868" data-name="Group 1868" transform="translate(4.031 4.031)">
        <g id="surface1" transform="translate(0 0)">
          <path id="Path_1033" data-name="Path 1033" class="cls-2" d="M29.175,27.563a1.624,1.624,0,0,0-1.612,1.612V43.688A1.624,1.624,0,0,0,29.175,45.3H43.688A1.624,1.624,0,0,0,45.3,43.688V29.175a1.624,1.624,0,0,0-1.612-1.612Zm0,1.612H43.688V43.688H39.505V38.245H41.6l.3-2.419H39.505V34.264c0-.705.173-1.184,1.184-1.184H42V30.888c-.224-.028-1-.076-1.89-.076a2.915,2.915,0,0,0-3.124,3.2v1.814H34.869v2.419h2.116v5.442H29.175Z" transform="translate(-27.563 -27.563)"/>
        </g>
      </g>
    </g>
  </g>
</svg>
