<svg xmlns="http://www.w3.org/2000/svg" viewBox="0 0 16.999 17">
  <defs>
    <style>
      .cls-1 {
        fill: none;
      }

      .cls-2 {
        fill: #ff2661;
      }

      .cls-3 {
        fill: #fff;
      }
    </style>
  </defs>
  <g id="faield" transform="translate(17542.021 -2137.979)">
    <rect id="Rectangle_347" data-name="Rectangle 347" class="cls-1" width="16.999" height="17" transform="translate(-17542.021 2137.979)"/>
    <g id="Group_824" data-name="Group 824" transform="translate(-17538.092 2141.909)">
      <ellipse id="Ellipse_52" data-name="Ellipse 52" class="cls-2" cx="4.676" cy="4.677" rx="4.676" ry="4.677" transform="translate(0)"/>
      <path id="Path_1004" data-name="Path 1004" class="cls-3" d="M2.5-14l-.073,3.942H1.915L1.846-14ZM2.183-8.447a.413.413,0,0,1-.3-.122.4.4,0,0,1-.124-.3.409.409,0,0,1,.124-.3.409.409,0,0,1,.3-.124.411.411,0,0,1,.3.124.406.406,0,0,1,.126.3.4.4,0,0,1-.126.3A.414.414,0,0,1,2.183-8.447Z" transform="translate(2.424 15.997)"/>
    </g>
  </g>
</svg>
