<svg xmlns="http://www.w3.org/2000/svg" viewBox="0 0 30 30">
  <defs>
    <style>
      .cls-1 {
        fill: #9f9f9f;
      }

      .cls-2 {
        fill: none;
      }
    </style>
  </defs>
  <g id="gif" transform="translate(-1308 -727)">
    <g id="Group_1199" data-name="Group 1199" transform="translate(1311.793 731)">
      <path id="Subtraction_21" data-name="Subtraction 21" class="cls-1" d="M-4260.052-1536.26h-12.74a5.006,5.006,0,0,1-5-5V-1554a5.007,5.007,0,0,1,5-5h12.74a5.006,5.006,0,0,1,5,5v12.74A5.005,5.005,0,0,1-4260.052-1536.26Zm-11.167-16.1a4.133,4.133,0,0,0-2.188.57,3.678,3.678,0,0,0-1.429,1.645,6.055,6.055,0,0,0-.5,2.544v.668a5.718,5.718,0,0,0,.537,2.487,3.728,3.728,0,0,0,1.483,1.615,4.407,4.407,0,0,0,2.235.556,6.486,6.486,0,0,0,2.211-.361,3.521,3.521,0,0,0,1.543-1.015v-3.916h-3.863v1.489h1.84v1.692a2.249,2.249,0,0,1-1.625.486,2.016,2.016,0,0,1-1.719-.789,3.9,3.9,0,0,1-.586-2.333v-.627a4.087,4.087,0,0,1,.545-2.305,1.8,1.8,0,0,1,1.57-.775,1.914,1.914,0,0,1,1.271.391,1.967,1.967,0,0,1,.6,1.234h1.968a3.568,3.568,0,0,0-1.166-2.423A4.116,4.116,0,0,0-4271.219-1552.361Zm9.6,4.085v5.865h1.955v-5.865h1.449v-1.429h-1.449v-.586c0-.685.37-1.032,1.1-1.032a2.482,2.482,0,0,1,.594.061l.021-1.51a4.591,4.591,0,0,0-.992-.135,2.74,2.74,0,0,0-1.971.677,2.528,2.528,0,0,0-.7,1.9v.621h-1.085v1.429Zm-4.092-1.429v7.294h1.955v-7.294Zm.978-2.892a1.1,1.1,0,0,0-.8.283.961.961,0,0,0-.294.721.961.961,0,0,0,.3.728,1.11,1.11,0,0,0,.792.283,1.108,1.108,0,0,0,.791-.283.958.958,0,0,0,.3-.728.959.959,0,0,0-.3-.721A1.111,1.111,0,0,0-4264.733-1552.6Z" transform="translate(4277.793 1559)"/>
    </g>
    <rect id="Rectangle_2365" data-name="Rectangle 2365" class="cls-2" width="30" height="30" transform="translate(1308 727)"/>
  </g>
</svg>
