<svg xmlns="http://www.w3.org/2000/svg" viewBox="0 0 33 33">
  <defs>
    <style>
      .cls-1 {
        fill: #fff;
      }

      .cls-2 {
        fill: none;
      }
    </style>
  </defs>
  <g id="Group_" data-name="Group " transform="translate(5055 -533)">
    <g id="friends-icons---free-download--png-and-svg" transform="translate(-5052 540)">
      <path id="Path_975" data-name="Path 975" class="cls-1" d="M10.885,6a3.273,3.273,0,1,0,3.273,3.273A3.287,3.287,0,0,0,10.885,6ZM19.3,6a3.273,3.273,0,1,0,3.273,3.273A3.287,3.287,0,0,0,19.3,6ZM10.885,7.87a1.4,1.4,0,1,1-1.4,1.4A1.389,1.389,0,0,1,10.885,7.87Zm8.417,0a1.4,1.4,0,1,1-1.4,1.4A1.389,1.389,0,0,1,19.3,7.87ZM6.676,11.611a3.721,3.721,0,0,0-2.6,6.4A4.71,4.71,0,0,0,2,21.9H3.87a2.806,2.806,0,0,1,5.611,0h1.87a4.71,4.71,0,0,0-2.075-3.887,3.721,3.721,0,0,0-2.6-6.4ZM11.352,21.9a4.7,4.7,0,0,0-.935,2.806h1.87a2.806,2.806,0,1,1,5.611,0h1.87a4.682,4.682,0,0,0-2.075-3.887,3.741,3.741,0,1,0-5.2,0A4.714,4.714,0,0,0,11.352,21.9Zm7.482,0H20.7a2.806,2.806,0,0,1,5.611,0h1.87a4.71,4.71,0,0,0-2.075-3.887,3.741,3.741,0,1,0-5.2,0A4.71,4.71,0,0,0,18.834,21.9ZM6.676,13.482a1.87,1.87,0,1,1-1.87,1.87A1.856,1.856,0,0,1,6.676,13.482Zm16.834,0a1.87,1.87,0,1,1-1.87,1.87A1.856,1.856,0,0,1,23.51,13.482Zm-8.417,2.806a1.87,1.87,0,1,1-1.87,1.87A1.856,1.856,0,0,1,15.093,16.288Z" transform="translate(-2 -6)"/>
    </g>
    <rect id="Rectangle_2371" data-name="Rectangle 2371" class="cls-2" width="33" height="33" transform="translate(-5055 533)"/>
  </g>
</svg>
