<svg id="ic_action_download" xmlns="http://www.w3.org/2000/svg" viewBox="0 0 30 30">
  <defs>
    <style>
      .cls-1 {
        fill: none;
      }

      .cls-2 {
        fill: #fff;
      }
    </style>
  </defs>
  <g id="Group_763" data-name="Group 763">
    <rect id="Rectangle_345" data-name="Rectangle 345" class="cls-1" width="30" height="30"/>
  </g>
  <path id="Path_976" data-name="Path 976" class="cls-2" d="M16.6,5.753V21.121l-5-5a1.023,1.023,0,0,0-1.4,0h0a1.023,1.023,0,0,0,0,1.4l6.691,6.691a.944.944,0,0,0,.735.294h0a1.053,1.053,0,0,0,.735-.294l6.691-6.691a.988.988,0,0,0-1.4-1.4l-5.074,5V5.753a.973.973,0,0,0-.956-.956h0A.909.909,0,0,0,16.6,5.753Z" transform="translate(-2.627 -1.268)"/>
  <path id="Path_977" data-name="Path 977" class="cls-2" d="M24.406,32.2H10.656a.973.973,0,0,0-.956.956h0a.973.973,0,0,0,.956.956h13.75a.973.973,0,0,0,.956-.956h0A.887.887,0,0,0,24.406,32.2Z" transform="translate(-2.568 -8.524)"/>
</svg>
