<svg xmlns="http://www.w3.org/2000/svg" viewBox="0 0 25.8 25.8">
  <defs>
    <style>
      .cls-1 {
        fill: none;
      }

      .cls-2 {
        fill: #2094fa;
      }
    </style>
  </defs>
  <g id="id-icons---free-download--png-and-svg" transform="translate(-37.8 -37.8)">
    <g id="Group_1858" data-name="Group 1858" transform="translate(37.8 37.8)">
      <path id="Path_1026" data-name="Path 1026" class="cls-1" d="M0,25.8V0H25.8V25.8Z" transform="translate(0 0)"/>
      <g id="Group_1857" data-name="Group 1857" transform="translate(5.022 5.022)">
        <g id="surface1">
          <path id="Path_1027" data-name="Path 1027" class="cls-2" d="M22.05,22.05V37.807H37.807V22.05Zm1.313,1.313H36.494V36.494H35.14a5.276,5.276,0,0,0-2.893-4.042,3.939,3.939,0,1,0-4.637,0,5.276,5.276,0,0,0-2.893,4.042H23.363Zm6.565,3.283A2.626,2.626,0,1,1,27.3,29.272,2.615,2.615,0,0,1,29.928,26.646Zm0,6.565a3.919,3.919,0,0,1,3.878,3.283H26.051A3.919,3.919,0,0,1,29.928,33.211Z" transform="translate(-22.05 -22.05)"/>
        </g>
      </g>
    </g>
  </g>
</svg>
