<svg xmlns="http://www.w3.org/2000/svg" viewBox="0 0 25.8 25.8">
  <defs>
    <style>
      .cls-1 {
        fill: none;
      }

      .cls-2 {
        fill: #2094fa;
      }
    </style>
  </defs>
  <g id="instagram" transform="translate(-37.8 -37.8)">
    <g id="Group_1867" data-name="Group 1867" transform="translate(37.8 37.8)">
      <path id="Path_1030" data-name="Path 1030" class="cls-1" d="M0,25.8V0H25.8V25.8Z" transform="translate(0 0)"/>
      <g id="Group_1866" data-name="Group 1866" transform="translate(4.031 4.031)">
        <g id="surface1">
          <path id="Path_1031" data-name="Path 1031" class="cls-2" d="M32.778,27.562a5.236,5.236,0,0,0-5.215,5.215v7.307A5.236,5.236,0,0,0,32.778,45.3h7.307A5.236,5.236,0,0,0,45.3,40.085V32.778a5.236,5.236,0,0,0-5.215-5.215Zm0,1.612h7.307a3.6,3.6,0,0,1,3.6,3.6v7.307a3.6,3.6,0,0,1-3.6,3.6H32.778a3.6,3.6,0,0,1-3.6-3.6V32.778A3.6,3.6,0,0,1,32.778,29.175Zm8.415,1.764a.731.731,0,1,0,.731.731A.727.727,0,0,0,41.193,30.939Zm-4.762.655a4.838,4.838,0,1,0,4.838,4.837A4.851,4.851,0,0,0,36.431,31.594Zm0,1.613a3.225,3.225,0,1,1-3.225,3.225A3.211,3.211,0,0,1,36.431,33.206Z" transform="translate(-27.563 -27.562)"/>
        </g>
      </g>
    </g>
  </g>
</svg>
