<svg xmlns="http://www.w3.org/2000/svg" viewBox="0 0 59.083 59.066">
  <defs>
    <style>
      .cls-1 {
        fill: #1738c6;
      }

      .cls-2 {
        fill: #fff;
      }

      .cls-3 {
        fill: #8999e1;
      }

      .cls-4 {
        fill: #7084dc;
      }

      .cls-5 {
        fill: #1839c6;
      }

      .cls-6 {
        fill: #ddd;
      }
    </style>
  </defs>
  <g id="Symbol_2_1" data-name="Symbol 2 – 1" transform="translate(-147 -24)">
    <path id="Path_1013" data-name="Path 1013" class="cls-1" d="M29.482,59.066H12.53a13.514,13.514,0,0,1-3.961-.529A12.207,12.207,0,0,1,.154,48.943,14.543,14.543,0,0,1,0,46.5V11.864A12.158,12.158,0,0,1,8.621.512,11.913,11.913,0,0,1,12.086,0H46.741a11.83,11.83,0,0,1,4.865.939,12,12,0,0,1,7.306,9.218,10.752,10.752,0,0,1,.154,1.963c0,11.608-.017,23.217.017,34.808A12.192,12.192,0,0,1,49.54,58.793a9.765,9.765,0,0,1-1.861.256c-.461,0-.922.017-1.4.017Z" transform="translate(147 24)"/>
    <path id="Path_1014" data-name="Path 1014" class="cls-2" d="M41.794,96.594a33.556,33.556,0,0,1-4.148,2.919c-.068.034-.137.085-.2.119-.222.154-.256.2-.137.478a10.039,10.039,0,0,1,.666,2.527,7.723,7.723,0,0,1-2.2,6.9c-.2.2-.427.41-.649.632a7.876,7.876,0,0,1-4.387,2.2,5.923,5.923,0,0,1-5.275-1.571,3.77,3.77,0,0,1-1.093-4.387,5.923,5.923,0,0,1,1.4-2.185,11.963,11.963,0,0,1,2.458-1.895c1.4-.854,2.868-1.571,4.353-2.288.683-.324.7-.324.188-.854A13.8,13.8,0,0,0,30.886,97.6c-.888-.649-1.758-1.3-2.578-2.031a9.015,9.015,0,0,1-2.953-5.07,7.42,7.42,0,0,1,.085-3.244,11.38,11.38,0,0,1,2.3-4.575,7.642,7.642,0,0,1,6.538-2.748,4.754,4.754,0,0,1,3.943,2.151,4.077,4.077,0,0,1,.683,2.066A6.917,6.917,0,0,1,33.4,91.2a8.641,8.641,0,0,1-1.878.171,1.121,1.121,0,0,1-.888-1.827,1.405,1.405,0,0,1,1.178-.632,4.189,4.189,0,0,0,1.3-.188,4.887,4.887,0,0,0,3.568-3.875,3.082,3.082,0,0,0-.1-1.622,2.049,2.049,0,0,0-1.827-1.417,5.845,5.845,0,0,0-2.475.444A7.166,7.166,0,0,0,28.7,85.6a6.629,6.629,0,0,0-.836,2.714,5.3,5.3,0,0,0,1.093,3.517,6.1,6.1,0,0,0,1.075,1.127c.836.666,1.656,1.332,2.509,1.963A21.448,21.448,0,0,1,36.195,98.2a.947.947,0,0,0,.137.1,1.268,1.268,0,0,0,.58-.256,36.926,36.926,0,0,0,5.207-3.414,1.712,1.712,0,0,0,.632-1.007c.256-1.11.546-2.219.819-3.346-.256-.119-.444.034-.632.1-1.246.41-2.492.819-3.756,1.127a3.325,3.325,0,0,1-.393.1,1.168,1.168,0,0,1-1.314-.854.478.478,0,0,1,.2-.563,1.864,1.864,0,0,1,.615-.2A44.362,44.362,0,0,0,43.6,88.349a1.193,1.193,0,0,0,.819-.9c.273-.939.58-1.878.871-2.817a1.777,1.777,0,0,1,1.28-1.263,1.423,1.423,0,0,1,.8.017.747.747,0,0,1,.563,1.007c-.137.478-.29.939-.444,1.4-.085.256-.171.512-.239.785a.143.143,0,0,0,.171.188c.2-.068.41-.154.615-.239l5.07-2.3a26.305,26.305,0,0,1,6.521-2.134,20.343,20.343,0,0,1,9.014.256,11.018,11.018,0,0,1,3.192,1.451,8.427,8.427,0,0,1,2.339,2.39,1.418,1.418,0,0,1-.1,1.81.667.667,0,0,1-1.058.068c-.222-.2-.427-.427-.649-.632a11.515,11.515,0,0,0-5.292-2.646,19.986,19.986,0,0,0-4.387-.393,24.811,24.811,0,0,0-9.543,2.049c-2.031.854-4.08,1.724-6.146,2.492a.97.97,0,0,0-.666.734c-.58,2.185-1.195,4.37-1.6,6.589a24.971,24.971,0,0,0-.358,3.739,2.5,2.5,0,0,0,.034.5.254.254,0,0,0,.376.171,2.121,2.121,0,0,0,.393-.29L46.4,99.291c.273-.239.632-.41.768-.7.154-.29.051-.7.119-1.041a12.979,12.979,0,0,1,.29-1.366,14.631,14.631,0,0,1,1.485-3.534,6.28,6.28,0,0,1,1.468-1.741,3.5,3.5,0,0,1,1.229-.632A2.128,2.128,0,0,1,54.5,91.8c.2.137.222-.068.29-.154.137-.358.256-.717.41-1.075a.587.587,0,0,1,.99-.239,1.15,1.15,0,0,1,.41,1.314c-.068.2-.154.41-.222.615a29.192,29.192,0,0,0-1.314,4.473,5.1,5.1,0,0,0-.1,1.144c.017.546.376.768.888.563a2.035,2.035,0,0,0,.734-.512q.358-.41.666-.819a13.1,13.1,0,0,0,1.434-2.578,28.772,28.772,0,0,0,1.178-3.739.645.645,0,0,0-.154-.666,12.311,12.311,0,0,1-1.349-1.758,4.7,4.7,0,0,1-.29-.5.878.878,0,0,1,.358-1.127,1.4,1.4,0,0,1,2.083.734.128.128,0,0,1,.017.085A2.864,2.864,0,0,0,61.9,89.6a5.919,5.919,0,0,1,.5.427,4.386,4.386,0,0,1,1.536,2.714,3.156,3.156,0,0,1-.051,1.383c-.341,1.383-.8,2.714-1.28,4.063-.29.819-.615,1.639-.939,2.441a2.639,2.639,0,0,0-.119.393c0,.017.017.068.034.068.051.017.119.051.137.017a2.33,2.33,0,0,0,.29-.29,19.605,19.605,0,0,0,3.278-5.821,6.707,6.707,0,0,0,.358-1.758,3.694,3.694,0,0,1,1.178-2.458A2.72,2.72,0,0,1,68.579,90,1.831,1.831,0,0,1,70.3,91.046.607.607,0,0,1,69.74,92a1.2,1.2,0,0,0-.649.034,1.355,1.355,0,0,0-.836,1.366,4.824,4.824,0,0,0,.29,1.11,23.427,23.427,0,0,0,1.963,3.858c.034.051.085.068.12.1a1.236,1.236,0,0,0,.5-.529A18.271,18.271,0,0,0,72.71,95.28a7.023,7.023,0,0,0,.58-2.7c.017-.222.017-.444.034-.649.051-.461.358-.6.751-.324A2.034,2.034,0,0,1,75,93.18a3.949,3.949,0,0,1-.256,1.775,11.7,11.7,0,0,1-3.192,4.882.782.782,0,0,0-.29.785,12.244,12.244,0,0,1-.017,2.851,5.123,5.123,0,0,1-.666,2,6.417,6.417,0,0,1-2.629,2.509,4.05,4.05,0,0,1-3.414.222,2.189,2.189,0,0,1-1.553-2.168,4,4,0,0,1,1.127-2.817,6.42,6.42,0,0,1,2.1-1.536c.632-.307,1.263-.632,1.912-.939a3.836,3.836,0,0,0,.358-.2c.341-.2.358-.273.171-.649a2.94,2.94,0,0,0-.376-.632,23.809,23.809,0,0,1-1.946-3.226.758.758,0,0,0-.137-.188c-.2-.017-.2.137-.256.256a28.1,28.1,0,0,1-1.758,3.6,11.077,11.077,0,0,1-1.229,1.741,6.033,6.033,0,0,1-1.093.99,1.787,1.787,0,0,1-2.339-.5,1.589,1.589,0,0,1-.239-1.178,7.065,7.065,0,0,1,.529-1.639c.546-1.195,1.093-2.39,1.622-3.568.171-.376.358-.734.5-1.127a2.942,2.942,0,0,0-1.058-3.278c-.137-.085-.273-.051-.307.119a26.666,26.666,0,0,1-.854,3.244,17.957,17.957,0,0,1-1.11,2.731,5.435,5.435,0,0,1-2.7,2.509,2.707,2.707,0,0,1-1.263.256,1.473,1.473,0,0,1-1.485-1.519c-.017-.376,0-.768,0-1.144-.171-.068-.2.1-.256.2a10.4,10.4,0,0,1-1.451,1.878,4.834,4.834,0,0,1-1.041.8,2.558,2.558,0,0,1-1.656.29,1.538,1.538,0,0,1-.939-.461c-.119-.12-.222-.222-.324-.341-.273.034-.376.256-.529.393-.478.444-.956.9-1.434,1.332a4.1,4.1,0,0,1-1.041.649,1.968,1.968,0,0,1-2.8-1.673,9.459,9.459,0,0,1,.085-1.963l.256-1.536C42.05,96.765,42.136,96.56,41.794,96.594Z" transform="translate(127.023 -42.276)"/>
    <path id="Path_1015" data-name="Path 1015" class="cls-3" d="M127.8,176.624c.051-.051.085-.137.137-.171.119-.068.188-.017.2.119a.465.465,0,0,1-.154.41C127.937,176.863,127.971,176.676,127.8,176.624Z" transform="translate(41.017 -122.306)"/>
    <path id="Path_1016" data-name="Path 1016" class="cls-4" d="M202.273,148.9a1.007,1.007,0,0,1-.034.239c-.034.068-.068.239-.2.154-.034-.017-.034-.137-.034-.222A1.065,1.065,0,0,1,202.273,148.9Z" transform="translate(-20.516 -99.481)"/>
    <path id="Path_1017" data-name="Path 1017" class="cls-1" d="M47.1,207.371a5.668,5.668,0,0,1-1.058,7.016,7.046,7.046,0,0,1-3.79,1.775,3.132,3.132,0,0,1-1.758-.29,1.973,1.973,0,0,1-1.058-2.663,3.319,3.319,0,0,1,.666-1.11,6.8,6.8,0,0,1,1.178-1.144,39.186,39.186,0,0,1,5.275-3.414C46.746,207.456,46.9,207.337,47.1,207.371Z" transform="translate(114.423 -147.965)"/>
    <path id="Path_1018" data-name="Path 1018" class="cls-1" d="M263.705,208.2a4.666,4.666,0,0,1,.137,2.544,4.855,4.855,0,0,1-1.11,2.236,2.859,2.859,0,0,1-2.39,1.024,1.444,1.444,0,0,1-1.28-2.151,2.987,2.987,0,0,1,.7-.888,13.312,13.312,0,0,1,2.253-1.758C262.527,208.866,263.074,208.559,263.705,208.2Z" transform="translate(-67.694 -148.658)"/>
    <path id="Path_1019" data-name="Path 1019" class="cls-5" d="M172.9,158.766c.034-.171.051-.376.1-.6a10.453,10.453,0,0,1,1.758-3.739,5.261,5.261,0,0,1,.666-.717,2.327,2.327,0,0,1,.6-.41c.529-.273.836-.085.854.512a3.123,3.123,0,0,1-.068.8,9.575,9.575,0,0,1-1.4,3.363,5.023,5.023,0,0,1-1.024,1.144,1.867,1.867,0,0,1-.871.41.444.444,0,0,1-.58-.41A1.057,1.057,0,0,1,172.9,158.766Z" transform="translate(3.616 -103.031)"/>
    <path id="Path_1020" data-name="Path 1020" class="cls-6" d="M73.2,195.612l1.314,1.878.717-.29a4.494,4.494,0,0,0-.632-1.28,6.215,6.215,0,0,0-.785-.819s.017.2-.119.256C73.558,195.424,73.2,195.612,73.2,195.612Z" transform="translate(86.296 -137.794)"/>
    <path id="Path_1021" data-name="Path 1021" class="cls-6" d="M137.067,135.322l2.851-1.024.154-.358.222-.239s-3.329,1.212-3.295,1.212a.794.794,0,0,1,.154.051Z" transform="translate(33.389 -86.876)"/>
    <path id="Path_1022" data-name="Path 1022" class="cls-6" d="M281.8,199.263l.478-.29s.1-.051.1-.1a.961.961,0,0,1,.034-.171s.341,1.28.341,1.417a.272.272,0,0,1-.051.188l-.324.188a1.391,1.391,0,0,0-.188-.836A1.565,1.565,0,0,0,281.8,199.263Z" transform="translate(-86.694 -140.78)"/>
    <path id="Path_1023" data-name="Path 1023" class="cls-6" d="M266.063,162.063a2.185,2.185,0,0,1-.444-.734,5.552,5.552,0,0,1-.12-.751s.171-.649.2-.836a2.125,2.125,0,0,0,.034-.341l.6,2.39s-.068-.051-.12,0a1.686,1.686,0,0,0-.154.307Z" transform="translate(-73.176 -108.189)"/>
  </g>
</svg>
