<svg xmlns="http://www.w3.org/2000/svg" viewBox="0 0 25 25">
  <defs>
    <style>
      .cls-1, .cls-2 {
        fill: none;
      }

      .cls-1 {
        stroke: #515c8b;
        stroke-linecap: round;
        stroke-linejoin: round;
        stroke-miterlimit: 10;
      }
    </style>
  </defs>
  <g id="new_group" transform="translate(-61 -457)">
    <g id="Orion_social" transform="translate(64 458)">
      <circle id="layer2" class="cls-1" cx="1.856" cy="1.856" r="1.856" transform="translate(8.1 11.426)"/>
      <path id="layer2-2" data-name="layer2" class="cls-1" d="M23.182,46A3.209,3.209,0,0,0,20,49.182v.53h6.365v-.53A3.209,3.209,0,0,0,23.182,46Z" transform="translate(-13.226 -30.862)"/>
      <circle id="layer2-3" data-name="layer2" class="cls-1" cx="1.591" cy="1.591" r="1.591" transform="translate(13.669 4)"/>
      <path id="layer2-4" data-name="layer2" class="cls-1" d="M47.3,19.182C47.3,17.193,46.111,16,44.652,16S42,17.193,42,19.182Z" transform="translate(-29.392 -8.818)"/>
      <circle id="layer2-5" data-name="layer2" class="cls-1" cx="1.591" cy="1.591" r="1.591" transform="translate(3.061 4)"/>
      <path id="layer2-6" data-name="layer2" class="cls-1" d="M7.3,19.182C7.3,17.193,6.111,16,4.652,16S2,17.193,2,19.182Z" transform="translate(0 -8.818)"/>
      <path id="layer1" class="cls-1" d="M12,19.3l2.122,2.122M22.608,19.3l-2.122,2.122M15.182,14h4.243" transform="translate(-7.348 -7.348)"/>
    </g>
    <rect id="Rectangle_2336" data-name="Rectangle 2336" class="cls-2" width="25" height="25" transform="translate(61 457)"/>
  </g>
</svg>
