<svg xmlns="http://www.w3.org/2000/svg" viewBox="0 0 20.612 20.044">
  <defs>
    <style>
      .cls-1 {
        fill: #4cd863;
      }

      .cls-2 {
        fill: #fff;
      }
    </style>
  </defs>
  <g id="phone" transform="translate(-1121.146 -333.619)">
    <path id="Icon_Background" data-name="Icon Background" class="cls-1" d="M0,4.493A4.558,4.558,0,0,1,4.62,0H15.992a4.558,4.558,0,0,1,4.62,4.493V15.552a4.558,4.558,0,0,1-4.62,4.493H4.62A4.558,4.558,0,0,1,0,15.552V4.493Z" transform="translate(1121.146 333.619)"/>
    <path id="Path_83" data-name="Path 83" class="cls-2" d="M11.99,13.672h-.012c-1.875-.06-4.071-1.827-5.584-3.3S3.062,6.763,3,4.949c-.021-.637,1.585-1.769,1.6-1.781a.788.788,0,0,1,1.07.074C5.8,3.416,7.022,5.21,7.154,5.414a.834.834,0,0,1-.055.841c-.095.175-.408.712-.555.962A12.855,12.855,0,0,0,7.99,8.82a13.037,13.037,0,0,0,1.649,1.407c.257-.143.809-.448.989-.54a.9.9,0,0,1,.86-.055c.224.134,2.065,1.324,2.234,1.438a.618.618,0,0,1,.252.459.88.88,0,0,1-.174.585C13.79,12.129,12.639,13.672,11.99,13.672Z" transform="translate(1122.961 335.306)"/>
  </g>
</svg>
