<svg xmlns="http://www.w3.org/2000/svg" viewBox="0 0 25.8 25.8">
  <defs>
    <style>
      .cls-1 {
        fill: none;
      }

      .cls-2 {
        fill: #2094fa;
      }
    </style>
  </defs>
  <g id="Registration" transform="translate(-37.8 -37.8)">
    <g id="Group_1856" data-name="Group 1856" transform="translate(37.8 37.8)">
      <path id="Path_1024" data-name="Path 1024" class="cls-1" d="M0,25.8V0H25.8V25.8Z" transform="translate(0 0)"/>
      <g id="Group_1855" data-name="Group 1855" transform="translate(4.51 3.225)">
        <g id="surface1">
          <path id="Path_1025" data-name="Path 1025" class="cls-2" d="M39.226,22.05A2.671,2.671,0,1,0,41.9,24.721,2.68,2.68,0,0,0,39.226,22.05Zm0,1.613a1.058,1.058,0,1,1-1.058,1.058A1.045,1.045,0,0,1,39.226,23.663Zm-6.249,2.167-.58,1.512,4.409,1.713V32.2l-3.779,4.107,1.184,1.083,4.006-4.308.2-.252V29.306h1.613v3.527l.2.252,4.006,4.308,1.184-1.083L41.644,32.2V29.054l4.409-1.713-.58-1.512-4.812,1.864H37.79Zm6.249,12.346a23.162,23.162,0,0,0-8.39,1.688l.655,1.461a21.857,21.857,0,0,1,7.735-1.537,21.857,21.857,0,0,1,7.735,1.537l.655-1.461a23.162,23.162,0,0,0-8.39-1.688Z" transform="translate(-30.836 -22.05)"/>
        </g>
      </g>
    </g>
  </g>
</svg>
