<svg xmlns="http://www.w3.org/2000/svg" viewBox="0 0 19 19">
  <defs>
    <style>
      .cls-1 {
        fill: none;
      }

      .cls-2 {
        fill: #2094fa;
      }
    </style>
  </defs>
  <g id="repeat" transform="translate(17)">
    <g id="Group_1284" data-name="Group 1284" transform="translate(-17)">
      <g id="Group_1283" data-name="Group 1283">
        <path id="Path_1004" data-name="Path 1004" class="cls-1" d="M-37.8-37.8h19v19h-19Z" transform="translate(37.8 37.8)"/>
        <g id="Group_1282" data-name="Group 1282" transform="translate(3.45 3.749)">
          <g id="surface1_2_">
            <path id="Path_1005" data-name="Path 1005" class="cls-2" d="M-22.69-29.486a3.46,3.46,0,0,0-3.444-3.444h-4.544l.43-.43a.55.55,0,0,0,0-.813h0a.55.55,0,0,0-.813,0l-1.387,1.387a.55.55,0,0,0,0,.813l1.387,1.387a.55.55,0,0,0,.813,0h0a.55.55,0,0,0,0-.813l-.43-.43h4.544a2.3,2.3,0,0,1,2.3,2.3v2.009a.553.553,0,0,0,.574.574h0a.553.553,0,0,0,.574-.574Zm-2.3,4.257-1.435-1.435a.55.55,0,0,0-.813,0h0a.55.55,0,0,0,0,.813l.43.43h-4.544a2.3,2.3,0,0,1-2.3-2.3v-2.009a.553.553,0,0,0-.574-.574h0a.553.553,0,0,0-.574.574v2.009a3.46,3.46,0,0,0,3.444,3.444H-26.8l-.43.43a.55.55,0,0,0,0,.813h0a.55.55,0,0,0,.813,0l1.387-1.387A.52.52,0,0,0-24.985-25.229Z" transform="translate(34.79 34.353)"/>
          </g>
        </g>
      </g>
    </g>
  </g>
</svg>
