<svg xmlns="http://www.w3.org/2000/svg" viewBox="0 0 25 25">
  <defs>
    <style>
      .cls-1, .cls-2 {
        fill: none;
      }

      .cls-1 {
        stroke: #515c8b;
        stroke-linecap: round;
        stroke-linejoin: round;
        stroke-miterlimit: 10;
      }
    </style>
  </defs>
  <g id="setting" transform="translate(-78 -483)">
    <g id="settings-icon--svg-png-----orion-icon-library_1_" data-name="settings-icon--svg-png-----orion-icon-library (1)" transform="translate(80.83 485.83)">
      <circle id="layer2" class="cls-1" cx="3.382" cy="3.382" r="3.382" transform="translate(5.891 5.874)"/>
      <path id="layer1" class="cls-1" d="M16.061,8.1,14.875,7.8a5.761,5.761,0,0,0-.612-1.47l.63-1.069a.58.58,0,0,0-.09-.7l-.824-.824a.58.58,0,0,0-.7-.09l-1.069.628a5.762,5.762,0,0,0-1.474-.614l-.315-1.219A.58.58,0,0,0,9.856,2H8.691a.58.58,0,0,0-.561.435L7.815,3.65a5.76,5.76,0,0,0-1.484.615L5.239,3.621a.58.58,0,0,0-.7.09l-.824.824a.58.58,0,0,0-.09.7l.643,1.092a5.762,5.762,0,0,0-.607,1.456L2.435,8.1A.58.58,0,0,0,2,8.665V9.831a.58.58,0,0,0,.435.561l1.213.314a5.761,5.761,0,0,0,.621,1.5l-.628,1.069a.58.58,0,0,0,.09.7l.824.824a.58.58,0,0,0,.7.09l1.069-.63a5.761,5.761,0,0,0,1.5.62l.3,1.178a.58.58,0,0,0,.561.435H9.856a.58.58,0,0,0,.561-.435l.306-1.184a5.762,5.762,0,0,0,1.487-.619l1.046.616a.58.58,0,0,0,.7-.09l.824-.824a.58.58,0,0,0,.09-.7l-.616-1.046a5.761,5.761,0,0,0,.626-1.512l1.176-.3a.58.58,0,0,0,.435-.562V8.665a.58.58,0,0,0-.435-.561Z"/>
    </g>
    <rect id="Rectangle_2335" data-name="Rectangle 2335" class="cls-2" width="25" height="25" transform="translate(78 483)"/>
  </g>
</svg>
