<svg xmlns="http://www.w3.org/2000/svg" viewBox="0 0 25.8 25.8">
  <defs>
    <style>
      .cls-1 {
        fill: none;
      }

      .cls-2 {
        fill: #2094fa;
      }
    </style>
  </defs>
  <g id="telegram" transform="translate(-37.8 -37.8)">
    <g id="Group_1871" data-name="Group 1871" transform="translate(37.8 37.8)">
      <path id="Path_1034" data-name="Path 1034" class="cls-1" d="M0,25.8V0H25.8V25.8Z" transform="translate(0 0)"/>
      <g id="Group_1870" data-name="Group 1870" transform="translate(1.613 3.22)">
        <g id="surface1">
          <path id="Path_1035" data-name="Path 1035" class="cls-2" d="M30.433,22.018a2.4,2.4,0,0,0-.753.18h0c-.23.091-1.323.551-2.982,1.247l-5.952,2.507c-4.271,1.8-8.469,3.568-8.469,3.568l.05-.019a2.585,2.585,0,0,0-.592.3,1.637,1.637,0,0,0-.472.457,1.342,1.342,0,0,0-.224.894,1.623,1.623,0,0,0,.721,1.124,2.393,2.393,0,0,0,.535.287H12.3l3.937,1.326c.176.567,1.2,3.93,1.446,4.705a2.885,2.885,0,0,0,.463.973,1.139,1.139,0,0,0,.305.283.9.9,0,0,0,.148.069.135.135,0,0,0,.05.016l-.041-.009a.293.293,0,0,1,.031.016.624.624,0,0,0,.094.019,1.334,1.334,0,0,0,1.124-.2l.028-.022,2.324-2.116,3.9,2.989.088.038a2.069,2.069,0,0,0,2.069-.192,2.109,2.109,0,0,0,.608-.8l.028-.072L31.91,24.163a2.217,2.217,0,0,0,.013-1.083,1.457,1.457,0,0,0-.63-.844,1.509,1.509,0,0,0-.86-.217Zm-.082,1.653a.469.469,0,0,1-.016.142v.009L27.353,39.085a.343.343,0,0,1-.094.117c-.063.05-.113.082-.375-.022l-4.765-3.653L19.24,38.15l.6-3.861,7.785-7.256c.321-.3.214-.362.214-.362.022-.365-.485-.107-.485-.107l-9.817,6.082,0-.016-4.705-1.584v0l-.013,0a.217.217,0,0,0,.025-.009l.025-.013.025-.009,8.472-3.568c2.138-.9,4.293-1.808,5.949-2.507S30.2,23.725,30.269,23.7s.035-.025.082-.025Z" transform="translate(-11.027 -22.016)"/>
        </g>
      </g>
    </g>
  </g>
</svg>
