<svg xmlns="http://www.w3.org/2000/svg" viewBox="0 0 25.8 25.8">
  <defs>
    <style>
      .cls-1 {
        fill: none;
      }

      .cls-2 {
        fill: #2094fa;
      }
    </style>
  </defs>
  <g id="twitter-icons" transform="translate(-37.8 -37.8)">
    <g id="Group_1865" data-name="Group 1865" transform="translate(37.8 37.8)">
      <path id="Path_1028" data-name="Path 1028" class="cls-1" d="M0,25.8V0H25.8V25.8Z" transform="translate(0 0)"/>
      <g id="Group_1864" data-name="Group 1864" transform="translate(3.225 5.036)">
        <g id="surface1">
          <path id="Path_1029" data-name="Path 1029" class="cls-2" d="M41.4,36.3a7.912,7.912,0,0,1-2.28.624,3.983,3.983,0,0,0,1.745-2.2,8,8,0,0,1-2.52.964A3.971,3.971,0,0,0,31.476,38.4a3.88,3.88,0,0,0,.1.9A11.253,11.253,0,0,1,23.4,35.159a3.972,3.972,0,0,0,1.228,5.3,3.947,3.947,0,0,1-1.8-.5v.05a3.968,3.968,0,0,0,3.184,3.893,3.952,3.952,0,0,1-1.046.142,3.87,3.87,0,0,1-.746-.072,3.977,3.977,0,0,0,3.707,2.759A7.962,7.962,0,0,1,23,48.431a7.859,7.859,0,0,1-.948-.057,11.288,11.288,0,0,0,17.382-9.511c0-.17-.006-.343-.013-.513A8.131,8.131,0,0,0,41.4,36.3Z" transform="translate(-22.05 -34.432)"/>
        </g>
      </g>
    </g>
  </g>
</svg>
