<svg id="volume" xmlns="http://www.w3.org/2000/svg" viewBox="0 0 19 19">
  <defs>
    <style>
      .cls-1 {
        fill: #2094fa;
      }

      .cls-2 {
        fill: none;
      }
    </style>
  </defs>
  <path id="Path_1006" data-name="Path 1006" class="cls-1" d="M3,8.253v3.1a.662.662,0,0,0,.665.665H5.659a.526.526,0,0,1,.443.222L8.465,14.6a.723.723,0,0,0,1.182-.517V5.52a.638.638,0,0,0-1.108-.443L6.176,7.366a.67.67,0,0,1-.517.222H3.665A.662.662,0,0,0,3,8.253ZM12.971,9.8a2.893,2.893,0,0,0-.665-1.92.645.645,0,0,0-1.182.369v3.1a.645.645,0,0,0,1.182.369A2.893,2.893,0,0,0,12.971,9.8ZM11.124,4.264v.148a.71.71,0,0,0,.443.665,5.171,5.171,0,0,1,0,9.6c-.3,0-.443.3-.443.591v.148a.692.692,0,0,0,.886.665,6.634,6.634,0,0,0,0-12.408A.6.6,0,0,0,11.124,4.264Z" transform="translate(-0.147 -0.3)"/>
  <path id="Path_1007" data-name="Path 1007" class="cls-2" d="M0,0H19V19H0Z"/>
</svg>
