<svg xmlns="http://www.w3.org/2000/svg" viewBox="0 0 25.8 25.8">
  <defs>
    <style>
      .cls-1 {
        fill: none;
      }

      .cls-2 {
        fill: #2094fa;
      }
    </style>
  </defs>
  <g id="website" transform="translate(-37.8 -37.8)">
    <g id="Group_1873" data-name="Group 1873" transform="translate(37.8 37.8)">
      <path id="Path_1036" data-name="Path 1036" class="cls-1" d="M0,25.8V0H25.8V25.8Z" transform="translate(0)"/>
      <g id="Group_1872" data-name="Group 1872" transform="translate(3.225 3.225)">
        <g id="surface1">
          <path id="Path_1037" data-name="Path 1037" class="cls-2" d="M31.725,22.05a9.693,9.693,0,0,0-8.793,5.644h1.814a8.131,8.131,0,0,1,3.8-3.376,11.532,11.532,0,0,0-1.26,3.376h1.688c.611-2.45,1.716-4.031,2.746-4.031s2.135,1.581,2.746,4.031h1.688a11.532,11.532,0,0,0-1.26-3.376,8.131,8.131,0,0,1,3.8,3.376h1.814a9.693,9.693,0,0,0-8.793-5.644ZM22.05,29.306l1.209,4.838h1.184s.838-2.929.857-3.149h.025c.009.2.831,3.149.831,3.149h1.134L28.5,29.306H27.467s-.7,2.894-.705,3.074h-.025c-.022-.227-.806-3.074-.806-3.074H24.821s-.923,2.926-.932,3.1c-.013-.23-.705-3.1-.705-3.1Zm6.45,0,1.209,4.838h1.184s.838-2.929.857-3.149h.025c.009.2.831,3.149.831,3.149h1.134l1.209-4.838H33.917s-.7,2.894-.705,3.074h-.025c-.022-.227-.806-3.074-.806-3.074H31.271s-.923,2.926-.932,3.1c-.013-.23-.705-3.1-.705-3.1Zm6.45,0,1.209,4.838h1.184s.838-2.929.857-3.149h.025c.009.2.831,3.149.831,3.149h1.134L41.4,29.306H40.367s-.7,2.894-.705,3.074h-.025c-.022-.227-.806-3.074-.806-3.074H37.721s-.923,2.926-.932,3.1c-.013-.23-.705-3.1-.705-3.1Zm-12.018,6.45a9.672,9.672,0,0,0,17.586,0H38.7a8.131,8.131,0,0,1-3.8,3.376,11.532,11.532,0,0,0,1.26-3.376H34.471c-.611,2.45-1.716,4.031-2.746,4.031s-2.135-1.581-2.746-4.031H27.291a11.532,11.532,0,0,0,1.26,3.376,8.131,8.131,0,0,1-3.8-3.376Z" transform="translate(-22.05 -22.05)"/>
        </g>
      </g>
    </g>
  </g>
</svg>
